# xmcd
#
# Track frame offsets:
#	150
#	15553
#	34377
#	48387
#	62270
#	78496
#	95230
#	110341
#	117640
#	132045
#
# Disc length: 1920 seconds
#
# Revision: 0
# Processed by: cddbd v1.5.1PL0 Copyright (c) Steve Scherf et al.
# Submitted via: dBpowerAMP V4.0
#
DISCID=82077e0a
DTITLE=AMAZAN - dez poemas engraçados cd 2
DYEAR=2003
DGENRE=piadas
TTITLE0=o filho da excelencia
TTITLE1=o ricão do cabaré
TTITLE2=a dieta da farinha
TTITLE3=a revolta das jumentas
TTITLE4=a linguiça do jumento
TTITLE5=a bodega do matuto
TTITLE6=o sonho da vida longa
TTITLE7=kalina
TTITLE8=o disco voador
TTITLE9=é preciso rebolar
EXTD=
EXTT0=
EXTT1=
EXTT2=
EXTT3=
EXTT4=
EXTT5=
EXTT6=
EXTT7=
EXTT8=
EXTT9=
PLAYORDER=
